<?xml version="1.0" standalone="no"?>
<!DOCTYPE svg PUBLIC "-//W3C//DTD SVG 20010904//EN"
 "http://www.w3.org/TR/2001/REC-SVG-20010904/DTD/svg10.dtd">
<svg version="1.0" xmlns="http://www.w3.org/2000/svg"
 width="136.000000pt" height="136.000000pt" viewBox="0 0 136.000000 136.000000"
 preserveAspectRatio="xMidYMid meet">
<metadata>
Created by potrace 1.14, written by Peter Selinger 2001-2017
</metadata>
<g transform="translate(0.000000,136.000000) scale(0.100000,-0.100000)"
fill="#000000" stroke="none">
<path d="M1024 1095 c-24 -26 -53 -41 -111 -60 -54 -17 -106 -43 -162 -83
l-83 -58 -33 31 c-18 17 -40 46 -49 63 -33 64 -60 71 -288 75 -70 2 -80 0
-120 -28 -58 -42 -88 -88 -88 -139 0 -23 -7 -50 -15 -60 -36 -48 7 -136 66
-136 23 0 32 -6 40 -27 6 -15 15 -31 21 -34 8 -5 -10 -57 -52 -153 -34 -81
-61 -148 -59 -150 2 -2 34 1 71 7 64 10 69 12 80 44 10 27 20 35 53 44 22 6
52 17 66 24 25 13 25 13 21 -14 -3 -21 2 -33 18 -44 21 -14 21 -15 -12 -20
-18 -3 -54 -9 -79 -12 -25 -4 -50 -10 -56 -13 -15 -11 -73 -157 -63 -160 5 -2
62 6 127 17 865 149 806 137 876 181 104 66 128 196 42 224 -17 6 -32 11 -34
13 -7 5 32 87 55 115 46 57 38 117 -25 196 -56 69 -101 132 -101 142 0 16 -38
50 -56 50 -9 0 -31 -16 -50 -35z m86 -10 c5 -14 36 -60 67 -102 85 -111 93
-125 93 -159 0 -31 0 -31 -35 -20 -24 7 -35 17 -35 30 0 11 -20 38 -43 60 -24
23 -57 63 -73 90 -55 92 -57 96 -44 112 20 24 59 17 70 -11z m-67 -105 c21
-38 48 -77 61 -87 23 -19 76 -92 76 -105 0 -5 -11 -8 -25 -8 -42 0 -74 -21
-82 -54 l-7 -31 -6 40 -5 40 -53 3 c-57 3 -82 -8 -82 -38 0 -11 -7 -17 -17
-16 -11 1 -19 -10 -24 -32 -11 -52 -19 -50 -19 4 0 70 -7 77 -56 60 -100 -36
-224 -41 -224 -11 0 15 41 8 51 -8 8 -12 52 11 44 23 -3 5 -13 6 -23 3 -9 -3
-14 -3 -10 2 4 4 3 14 -2 20 -7 8 -4 18 10 30 11 10 20 28 20 40 0 23 57 72
144 125 30 18 155 64 186 69 3 1 23 -30 43 -69z m-665 44 c24 -17 29 -53 10
-72 -9 -9 -9 -12 0 -12 19 0 44 47 37 70 -6 18 -2 20 32 20 42 0 96 -28 113
-59 9 -18 8 -21 -7 -22 -13 0 -11 -4 8 -12 41 -19 59 -38 59 -63 0 -38 -38
-56 -106 -50 -66 7 -72 10 -54 31 23 28 -10 17 -47 -15 -49 -43 -105 -44 -141
-2 l-24 27 5 -25 c2 -14 7 -32 10 -40 8 -20 -73 -70 -114 -70 -37 0 -69 32
-69 68 0 28 44 82 67 82 7 0 14 4 17 9 4 5 -2 7 -13 4 -27 -7 -34 11 -17 51
30 73 174 122 234 80z m141 -220 c21 -5 31 -12 31 -25 0 -16 -8 -19 -47 -20
-46 -2 -46 -2 -13 -8 31 -6 28 -7 -31 -13 -36 -4 -89 -16 -117 -26 -48 -19
-50 -19 -47 -1 3 12 -1 16 -11 12 -7 -3 -11 -10 -7 -16 3 -6 1 -7 -6 -3 -9 6
-9 11 1 24 11 13 10 15 -4 9 -33 -12 -18 2 23 24 38 19 139 46 180 48 9 1 31
-2 48 -5z m525 -97 c-6 -15 -154 -20 -154 -5 0 6 6 8 14 5 8 -3 27 -2 43 3 46
14 103 12 97 -3z m-588 -11 c3 -8 -4 -34 -15 -58 -11 -23 -18 -32 -14 -18 4
14 8 40 8 58 0 33 11 43 21 18z m114 -15 c0 -6 -4 -12 -8 -15 -5 -3 -9 1 -9 9
0 8 4 15 9 15 4 0 8 -4 8 -9z m245 -4 c-11 -6 -31 -12 -45 -13 -103 -5 -171
-18 -186 -35 -10 -11 -24 -19 -33 -19 -9 0 -3 8 15 19 18 11 34 25 36 31 3 11
105 25 198 28 31 1 33 0 15 -11z m365 7 c0 -3 -10 -27 -21 -54 -12 -27 -19
-56 -15 -65 6 -16 -9 -21 -18 -6 -7 10 36 131 47 131 4 0 7 -3 7 -6z m-87 -12
c-6 -4 -24 -35 -39 -70 -30 -69 -47 -78 -19 -10 9 24 21 53 26 66 5 12 16 22
26 22 12 0 14 -3 6 -8z m-828 -144 c-50 -116 -75 -166 -75 -146 0 4 27 69 106
257 8 19 17 32 20 29 3 -4 -20 -66 -51 -140z m685 124 c0 -4 -21 -28 -47 -52
l-47 -45 37 43 c21 24 35 47 32 52 -4 6 1 10 9 10 9 0 16 -4 16 -8z m-210 -31
c0 -15 -50 -70 -74 -82 -13 -8 -8 3 17 28 20 21 37 44 37 51 0 7 5 12 10 12 6
0 10 -4 10 -9z m220 -36 c-7 -8 -17 -15 -23 -15 -5 0 -2 9 8 20 21 23 35 19
15 -5z m-464 -71 c-30 -70 -33 -62 -9 18 10 31 22 53 26 49 5 -5 -3 -35 -17
-67z m474 -34 c-8 -5 -22 -10 -30 -10 -13 0 -13 1 0 10 8 5 22 10 30 10 13 0
13 -1 0 -10z m-235 -40 c-3 -5 -14 -10 -23 -10 -15 0 -15 2 -2 10 20 13 33 13
25 0z m-208 -36 c-3 -3 -12 -4 -19 -1 -8 3 -5 6 6 6 11 1 17 -2 13 -5z"/>
<path d="M925 1004 c-9 -9 -14 -23 -11 -31 3 -8 6 -17 6 -19 0 -3 12 -9 26
-14 34 -13 64 3 64 35 0 41 -54 59 -85 29z"/>
<path d="M856 993 c-3 -3 -3 -10 0 -14 7 -12 44 -12 44 0 0 10 -36 21 -44 14z"/>
<path d="M848 958 c12 -6 22 -17 22 -25 0 -8 -5 -11 -11 -8 -6 4 -13 -2 -16
-13 -3 -13 -10 -19 -19 -15 -11 4 -12 9 -3 19 9 11 8 14 -6 14 -14 0 -15 3 -5
15 7 9 8 15 2 15 -14 0 -23 -28 -11 -35 5 -4 7 -10 4 -15 -3 -5 4 -14 15 -20
16 -9 22 -8 26 5 3 8 12 15 20 15 21 0 17 38 -5 50 -11 5 -23 10 -28 9 -4 0 2
-5 15 -11z"/>
<path d="M1005 920 c-4 -7 -1 -19 8 -27 19 -19 59 -8 55 15 -4 20 -53 29 -63
12z"/>
<path d="M902 908 c-29 -29 -4 -53 36 -35 30 14 30 47 -1 47 -13 0 -28 -5 -35
-12z"/>
<path d="M718 893 c-23 -6 -30 -29 -12 -44 18 -15 64 3 64 25 0 11 -26 30 -33
25 -1 -1 -9 -3 -19 -6z"/>
<path d="M1011 852 c-7 -14 -6 -25 5 -40 13 -19 24 -22 71 -19 37 1 58 7 61
16 3 10 -2 13 -21 9 -15 -3 -24 -2 -22 2 2 4 -3 16 -11 28 -19 28 -69 30 -83
4z"/>
<path d="M810 845 c-15 -18 -10 -45 12 -59 23 -14 72 4 76 29 8 37 -62 61 -88
30z"/>
<path d="M929 858 c-7 -26 -6 -48 3 -54 6 -4 8 -3 4 4 -3 5 0 13 6 15 10 4 9
8 -2 17 -12 9 -10 10 10 8 14 -2 26 -10 28 -20 2 -13 -1 -16 -12 -12 -9 3 -16
1 -16 -5 0 -6 9 -11 20 -11 23 0 27 29 8 48 -10 10 -46 17 -49 10z"/>
<path d="M698 819 c-27 -15 -22 -46 7 -53 14 -4 31 -3 38 1 7 4 22 6 35 4 15
-2 22 3 22 15 0 13 -6 15 -29 11 -23 -5 -30 -2 -34 13 -6 22 -14 24 -39 9z
m28 -14 c-3 -8 -1 -15 5 -15 6 0 7 -5 4 -10 -5 -8 -11 -8 -19 -1 -7 6 -16 8
-19 4 -4 -3 -7 1 -7 10 0 14 13 24 34 26 4 1 6 -6 2 -14z"/>
</g>
</svg>
