<svg width="18" height="17" viewBox="0 0 18 17" fill="none" xmlns="http://www.w3.org/2000/svg">
<path d="M6.36893 13.0047C5.99847 13.0048 5.63636 13.1147 5.32837 13.3206C5.02038 13.5264 4.78036 13.819 4.63864 14.1613C4.49692 14.5036 4.45988 14.8802 4.53219 15.2435C4.6045 15.6068 4.78293 15.9406 5.04491 16.2025C5.30688 16.4644 5.64064 16.6428 6.00398 16.715C6.36732 16.7873 6.74393 16.7501 7.08617 16.6084C7.42842 16.4666 7.72094 16.2265 7.92675 15.9185C8.13256 15.6104 8.2424 15.2483 8.2424 14.8779C8.24484 14.6312 8.19805 14.3865 8.10476 14.1581C8.01147 13.9297 7.87356 13.7222 7.6991 13.5478C7.52463 13.3734 7.31713 13.2355 7.08873 13.1422C6.86033 13.049 6.61562 13.0022 6.36893 13.0047Z" fill="#FFD9C5"/>
<path d="M4.72057 2.51728H3.37183L2.99707 0.56951C2.99707 0.419925 2.77228 0.269989 2.62265 0.269989H0.374765C0.149976 0.269989 0 0.419925 0 0.644654C0 0.869383 0.149976 1.01897 0.374765 1.01897H2.3227L4.12101 10.1581C4.3458 11.3565 5.46975 12.2554 6.66885 12.2554H15.2856C15.5104 12.2554 15.6604 12.1058 15.6604 11.8811C15.6604 11.6564 15.5104 11.5064 15.2856 11.5064H6.74367C6.14411 11.5064 5.54491 11.2069 5.24496 10.6823L16.1848 9.18435C16.3348 9.18435 16.4844 9.03442 16.4844 8.88448L17.9831 2.89194C17.9831 2.89194 17.9831 2.74201 17.9083 2.66721C17.8335 2.59242 17.7583 2.51728 17.6083 2.51728H4.72057Z" fill="#FFD9C5"/>
<path d="M13.8621 13.0047C13.4917 13.0047 13.1295 13.1146 12.8215 13.3204C12.5135 13.5262 12.2734 13.8188 12.1316 14.161C11.9898 14.5033 11.9527 14.8799 12.025 15.2433C12.0973 15.6066 12.2757 15.9404 12.5376 16.2024C12.7996 16.4643 13.1334 16.6427 13.4967 16.715C13.8601 16.7873 14.2367 16.7502 14.579 16.6084C14.9212 16.4666 15.2138 16.2265 15.4196 15.9185C15.6254 15.6105 15.7353 15.2483 15.7353 14.8779C15.7377 14.6312 15.6909 14.3865 15.5977 14.1582C15.5044 13.9298 15.3665 13.7223 15.1921 13.5479C15.0177 13.3735 14.8102 13.2356 14.5818 13.1423C14.3535 13.0491 14.1088 13.0023 13.8621 13.0047Z" fill="#FFD9C5"/>
</svg>
