<svg width="21" height="20" viewBox="0 0 21 20" fill="none" xmlns="http://www.w3.org/2000/svg">
<g clip-path="url(#clip0_1_538)">
<path d="M17.9238 0H3.07617C2.26062 0.000930385 1.47875 0.309892 0.902069 0.859113C0.325386 1.40833 0.000976905 2.15297 0 2.92969L0 17.0703C0.000976905 17.847 0.325386 18.5917 0.902069 19.1409C1.47875 19.6901 2.26062 19.9991 3.07617 20H9.26953V12.9297H6.80859V9.41406H9.26953V7.03125C9.27062 6.09917 9.65988 5.20555 10.3519 4.54647C11.044 3.88739 11.9822 3.51666 12.9609 3.51562H16.6934V7.03125H12.9609V9.41406H16.6934L16.0781 12.9297H12.9609V20H17.9238C18.7394 19.9991 19.5212 19.6901 20.0979 19.1409C20.6746 18.5917 20.999 17.847 21 17.0703V2.92969C20.999 2.15297 20.6746 1.40833 20.0979 0.859113C19.5212 0.309892 18.7394 0.000930385 17.9238 0Z" fill="#A1A1A1"/>
</g>
<defs>
<clipPath id="clip0_1_538">
<rect width="21" height="20" fill="white"/>
</clipPath>
</defs>
</svg>
