<svg width="21" height="20" viewBox="0 0 21 20" fill="none" xmlns="http://www.w3.org/2000/svg">
<g clip-path="url(#clip0_1_541)">
<path d="M14.7442 0H6.25621C2.80645 0 0 2.67281 0 5.9583V14.0421C0 17.3272 2.80645 19.9989 6.25621 19.9989H14.7442C18.1935 19.9989 20.9989 17.3272 20.9989 14.0421V5.9583C20.9989 2.67281 18.1935 0 14.7442 0ZM18.8875 14.0421C18.8874 15.0886 18.4509 16.0922 17.6739 16.8322C16.8969 17.5723 15.843 17.988 14.7442 17.9881H6.25621C5.15729 17.9881 4.10337 17.5724 3.32627 16.8324C2.54918 16.0924 2.11256 15.0887 2.11246 14.0421V5.9583C2.11246 4.91164 2.54903 3.90785 3.32614 3.16775C4.10324 2.42765 5.15722 2.01187 6.25621 2.01187H14.7442C15.8431 2.01196 16.897 2.42779 17.674 3.16788C18.451 3.90797 18.8875 4.9117 18.8875 5.9583V14.0421Z" fill="#A1A1A1"/>
<path d="M10.5002 4.82739C7.50509 4.82739 5.06869 7.14777 5.06869 10.0003C5.06869 12.8527 7.50509 15.1717 10.5002 15.1717C13.4953 15.1717 15.9302 12.8524 15.9302 10.0003C15.9302 7.14814 13.4949 4.82739 10.5002 4.82739ZM10.5002 13.1609C9.84371 13.1609 9.20196 12.9756 8.65609 12.6283C8.11021 12.281 7.68475 11.7873 7.43349 11.2097C7.18223 10.6321 7.11647 9.9965 7.24452 9.3833C7.37258 8.77009 7.68869 8.20682 8.15289 7.76473C8.61709 7.32264 9.20852 7.02157 9.85239 6.89962C10.4963 6.77766 11.1636 6.84029 11.7701 7.07958C12.3766 7.31888 12.895 7.72408 13.2596 8.24396C13.6243 8.76384 13.8189 9.37503 13.8188 10.0003C13.8187 10.8385 13.4691 11.6423 12.8467 12.235C12.2244 12.8278 11.3803 13.1608 10.5002 13.1609Z" fill="#A1A1A1"/>
<path d="M15.942 6.1057C16.6608 6.1057 17.2434 5.55076 17.2434 4.86621C17.2434 4.18165 16.6608 3.62671 15.942 3.62671C15.2232 3.62671 14.6405 4.18165 14.6405 4.86621C14.6405 5.55076 15.2232 6.1057 15.942 6.1057Z" fill="#A1A1A1"/>
</g>
<defs>
<clipPath id="clip0_1_541">
<rect width="21" height="20" fill="white"/>
</clipPath>
</defs>
</svg>
