<svg width="22" height="17" viewBox="0 0 22 17" fill="none" xmlns="http://www.w3.org/2000/svg">
<g clip-path="url(#clip0_1_546)">
<path d="M0.393002 8.15114L5.45972 9.8277L7.42132 15.4282C7.44963 15.5114 7.5006 15.5871 7.56971 15.6487C7.63882 15.7103 7.72395 15.7558 7.81757 15.7812C7.9112 15.8066 8.01043 15.8112 8.1065 15.7944C8.20257 15.7777 8.29252 15.7402 8.3684 15.6853L11.1935 13.641C11.3376 13.537 11.5162 13.4782 11.7018 13.4736C11.8873 13.469 12.0694 13.5189 12.2198 13.6156L17.3143 16.8998C17.395 16.9517 17.4891 16.9849 17.5879 16.9963C17.6868 17.0077 17.7873 16.9969 17.8802 16.965C17.9732 16.9332 18.0557 16.8811 18.1202 16.8137C18.1848 16.7462 18.2293 16.6655 18.2497 16.5789L21.9823 0.639115C22.0041 0.545803 21.9972 0.449003 21.9622 0.358888C21.9273 0.268773 21.8657 0.188672 21.7839 0.127006C21.7021 0.0653396 21.603 0.0243851 21.4972 0.00844749C21.3914 -0.00749011 21.2827 0.00217783 21.1825 0.036435L0.387137 7.15925C0.274022 7.19796 0.176844 7.2663 0.10851 7.3552C0.0401755 7.4441 0.00391901 7.54936 0.00455535 7.65699C0.0051917 7.76462 0.0426907 7.86953 0.112072 7.9578C0.181454 8.04606 0.279435 8.11349 0.393002 8.15114ZM7.10538 8.9367L17.0109 3.52104C17.0473 3.50187 17.0905 3.49525 17.1321 3.50247C17.1737 3.50968 17.2109 3.53022 17.2366 3.56017C17.2623 3.59013 17.2747 3.62742 17.2715 3.66496C17.2682 3.7025 17.2496 3.73768 17.219 3.76381L9.04352 10.5091C8.75665 10.7463 8.57118 11.0644 8.51867 11.4093L8.24012 13.2407C8.23256 13.2926 8.20504 13.3406 8.16222 13.3766C8.1194 13.4126 8.0639 13.4343 8.00511 13.4381C7.94632 13.4419 7.88785 13.4276 7.83958 13.3976C7.79131 13.3675 7.7562 13.3236 7.74019 13.2733L6.66996 9.93249C6.61036 9.74706 6.62064 9.54941 6.69925 9.36964C6.77785 9.18988 6.92047 9.03785 7.10538 8.9367Z" fill="#A1A1A1"/>
</g>
<defs>
<clipPath id="clip0_1_546">
<rect width="22" height="17" fill="white"/>
</clipPath>
</defs>
</svg>
