<svg width="32" height="33" viewBox="0 0 32 33" fill="none" xmlns="http://www.w3.org/2000/svg">
<path d="M24.6155 7.64584C24.0324 7.14139 21.6758 5.53758 16.4267 5.51579C16.4267 5.51579 10.2366 5.16584 7.2191 7.76073C5.53935 9.33582 4.94845 11.6405 4.88612 14.4979C4.82379 17.3552 4.74315 22.71 10.249 24.162H10.2543L10.2507 26.3775C10.2507 26.3775 10.2155 27.2745 10.8455 27.4574C11.6076 27.6793 12.0548 26.9975 12.7823 26.2627C13.1817 25.8592 13.7331 25.2666 14.1486 24.8137C17.9142 25.1108 20.8102 24.4317 21.1391 24.3313C21.8994 24.1002 26.2016 23.5833 26.9013 18.2291C27.6236 12.7102 26.552 9.21928 24.6155 7.64584ZM25.2536 17.8332C24.6631 22.304 21.1736 22.5849 20.5303 22.7784C20.2566 22.8609 17.7131 23.4542 14.5145 23.2584C14.5145 23.2584 12.1312 25.954 11.3868 26.6549C11.2705 26.7645 11.1339 26.8087 11.0427 26.7869C10.9145 26.7575 10.8793 26.6152 10.8807 26.4073C10.8828 26.1101 10.9011 22.7256 10.9011 22.7256C6.24365 21.5133 6.51515 16.9557 6.56798 14.5692C6.6208 12.1826 7.09901 10.2275 8.51958 8.91258C11.0719 6.74522 16.3298 7.06909 16.3298 7.06909C20.7701 7.08725 22.8977 8.34078 23.3911 8.76072C25.0293 10.0757 25.8639 13.2222 25.2536 17.8319V17.8332Z" fill="#A1A1A1"/>
<path d="M18.5874 14.373C18.5297 13.2816 17.9383 12.7083 16.8133 12.6533L18.5874 14.373Z" fill="#A1A1A1"/>
<path d="M18.5874 14.373C18.5297 13.2816 17.9383 12.7083 16.8133 12.6533" stroke="#7360F2" stroke-width="0.556613" stroke-linecap="round" stroke-linejoin="round"/>
<path d="M20.1105 14.8518C20.134 13.835 19.8127 12.9855 19.1467 12.3032C18.4776 11.6185 17.5514 11.2415 16.3629 11.1599" fill="#A1A1A1"/>
<path d="M20.1105 14.8518C20.134 13.835 19.8127 12.9855 19.1467 12.3032C18.4776 11.6185 17.5514 11.2415 16.3629 11.1599" stroke="#7360F2" stroke-width="0.556613" stroke-linecap="round" stroke-linejoin="round"/>
<path d="M21.6698 15.4235C21.6555 13.659 21.0931 12.2694 19.9827 11.2545C18.8722 10.2397 17.4912 9.72685 15.8397 9.71606" fill="#A1A1A1"/>
<path d="M21.6698 15.4235C21.6555 13.659 21.0931 12.2694 19.9827 11.2545C18.8722 10.2397 17.4912 9.72685 15.8397 9.71606" stroke="#7360F2" stroke-width="0.556613" stroke-linecap="round" stroke-linejoin="round"/>
<path d="M16.8721 18.1006C16.8721 18.1006 17.2894 18.1336 17.5141 17.8741L17.9522 17.3574C18.1635 17.1012 18.6734 16.9378 19.1727 17.1986C19.5469 17.3987 19.9102 17.6162 20.2612 17.8503C20.5926 18.0788 21.2712 18.6096 21.2733 18.6096C21.5965 18.8655 21.6712 19.2412 21.4511 19.6374C21.4511 19.6397 21.4494 19.6436 21.4494 19.6456C21.2069 20.0396 20.8992 20.3948 20.5376 20.6981C20.5334 20.7001 20.5334 20.7021 20.5295 20.704C20.2154 20.9501 19.9068 21.09 19.6037 21.1236C19.5591 21.131 19.5138 21.1336 19.4685 21.1316C19.3349 21.1328 19.2019 21.1136 19.0748 21.0748L19.065 21.0613C18.598 20.9378 17.8184 20.6288 16.52 19.9573C15.7687 19.5733 15.0533 19.1303 14.3818 18.6331C14.0451 18.384 13.724 18.1171 13.42 17.8335L13.3876 17.8031L13.3552 17.7727L13.3228 17.7424C13.3119 17.7325 13.3014 17.7222 13.2905 17.712C12.988 17.427 12.7032 17.126 12.4376 16.8104C11.9073 16.1808 11.4348 15.5104 11.0251 14.8061C10.3088 13.5886 9.97921 12.8583 9.84751 12.4199L9.83307 12.4106C9.79179 12.2915 9.77145 12.1668 9.77285 12.0416C9.77039 11.9991 9.77311 11.9566 9.78095 11.9148C9.81875 11.6311 9.96818 11.3415 10.2292 11.0462C10.2313 11.0426 10.2335 11.0426 10.2356 11.0386C10.559 10.6996 10.9379 10.4112 11.3582 10.1842C11.3603 10.1842 11.3646 10.1822 11.367 10.1822C11.7896 9.97588 12.1903 10.0459 12.4629 10.3473C12.465 10.3493 13.0302 10.9854 13.2728 11.2961C13.5226 11.6255 13.7546 11.9664 13.968 12.3175C14.2462 12.7854 14.0719 13.2644 13.7986 13.4618L13.2475 13.8725C12.9693 14.0831 13.0059 14.4743 13.0059 14.4743C13.0059 14.4743 13.8222 17.3706 16.8721 18.1006Z" fill="#A1A1A1"/>
</svg>
