<svg width="28" height="20" viewBox="0 0 28 20" fill="none" xmlns="http://www.w3.org/2000/svg">
<g clip-path="url(#clip0_1_549)">
<path d="M27.7066 4.31812C27.7066 4.31812 27.4174 2.36142 26.5967 1.49996C25.5361 0.363533 24.3283 0.363533 23.7975 0.31822C19.8883 0.0453129 14 0 14 0C14 0 8.1117 0.0453129 4.20257 0.31822C3.67169 0.363533 2.46396 0.411936 1.4033 1.49996C0.534539 2.36348 0.29343 4.31812 0.29343 4.31812C0.29343 4.31812 0.00366211 6.63526 0.00366211 8.9524V11.0888C0.00366211 13.4059 0.29343 15.6798 0.29343 15.6798C0.29343 15.6798 0.582652 17.6365 1.4033 18.498C2.46505 19.6344 3.86359 19.5891 4.49233 19.7255C6.71207 19.9526 14 19.9979 14 19.9979C14 19.9979 19.8883 19.9979 23.7975 19.6802C24.3283 19.6344 25.535 19.5891 26.5967 18.4959C27.4168 17.6324 27.7066 15.6778 27.7066 15.6778C27.7066 15.6778 27.9964 13.3606 27.9964 11.0867V8.95446C27.9964 6.63629 27.7066 4.31812 27.7066 4.31812ZM10.6218 15.273V5.40923L19.7915 10.4554L10.6218 15.273Z" fill="#A1A1A1"/>
</g>
<defs>
<clipPath id="clip0_1_549">
<rect width="28" height="20" fill="white"/>
</clipPath>
</defs>
</svg>
